# xmcd
#
# Track frame offsets:
# 150
# 20146
# 34063
# 51444
# 73856
# 92477
# 114248
# 131139
#
# Disc length: 2097 seconds
#
#
# Revision: 0
# Processed by: cddbd v1.5.2PL0 Copyright (c) Steve Scherf et al.
# Submitted via: FreeRIP 2.941 
#
DISCID=6f082f08
DTITLE=Rufino e Barony - Bate Coração
DYEAR=1900
DGENRE=Gospel 
TTITLE0=Bate Coração
TTITLE1=É Bom Se Crente
TTITLE2=Te Amo
TTITLE3=Felicidade
TTITLE4=Sou o Teu Senhor
TTITLE5=Trio Estimado
TTITLE6=Dia da Vitória
TTITLE7=Promessa
EXTD=
EXTT0=
EXTT1=
EXTT2=
EXTT3=
EXTT4=
EXTT5=
EXTT6=
EXTT7=
PLAYORDER=
